<svg width="2062" height="1226" viewBox="0 0 2062 1226" fill="none" xmlns="http://www.w3.org/2000/svg">
<g opacity="0.2" clip-path="url(#clip0_2510_551)">
<path d="M142.097 941.238C63.5443 941.238 0 1004.78 0 1083.34C0 1161.69 63.5443 1225.43 142.097 1225.43C220.456 1225.43 284.195 1161.89 284.195 1083.34C284 1004.78 220.456 941.238 142.097 941.238ZM142.097 1216.27C68.6122 1216.27 9.16129 1156.82 9.16129 1083.34C9.16129 1009.85 68.6122 950.4 142.097 950.4C215.583 950.4 275.034 1009.85 275.034 1083.34C275.034 1156.63 215.388 1216.27 142.097 1216.27Z" fill="white"/>
<path d="M142.099 971.841C80.6984 971.841 30.7986 1021.74 30.7986 1083.14C30.7986 1144.54 80.6984 1194.44 142.099 1194.44C203.499 1194.44 253.398 1144.74 253.398 1083.34C253.398 1021.74 203.499 971.841 142.099 971.841ZM142.099 1177.48C90.0546 1177.48 47.7567 1135.18 47.7567 1083.14C47.7567 1031.1 90.0546 988.799 142.099 988.799C194.142 988.799 236.44 1031.1 236.44 1083.14C236.44 1135.18 194.142 1177.48 142.099 1177.48Z" fill="white"/>
<path d="M142.098 1020.77C107.597 1020.77 79.5283 1048.83 79.5283 1083.34C79.5283 1117.84 107.402 1145.9 142.098 1145.9C176.599 1145.9 204.668 1117.84 204.668 1083.34C204.473 1048.83 176.599 1020.77 142.098 1020.77ZM142.098 1116.86C123.58 1116.86 108.572 1101.85 108.572 1083.34C108.572 1064.82 123.58 1049.81 142.098 1049.81C160.616 1049.81 175.624 1064.82 175.624 1083.34C175.624 1101.85 160.616 1116.86 142.098 1116.86Z" fill="white"/>
</g>
<g opacity="0.8" clip-path="url(#clip1_2510_551)">
<path d="M1880.34 834.503C1880.34 836.022 1879.19 837.162 1877.67 837.162C1876.14 837.162 1875 836.022 1875 834.503C1875 832.983 1876.14 831.844 1877.67 831.844C1879.19 831.844 1880.34 833.11 1880.34 834.503Z" fill="white"/>
<path d="M1903.08 834.503C1903.08 836.022 1901.93 837.162 1900.41 837.162C1898.88 837.162 1897.74 836.022 1897.74 834.503C1897.74 832.983 1898.88 831.844 1900.41 831.844C1901.81 831.844 1903.08 833.11 1903.08 834.503Z" fill="white"/>
<path d="M1925.69 834.503C1925.69 836.022 1924.54 837.162 1923.02 837.162C1921.5 837.162 1920.35 836.022 1920.35 834.503C1920.35 832.983 1921.5 831.844 1923.02 831.844C1924.54 831.844 1925.69 833.11 1925.69 834.503Z" fill="white"/>
<path d="M1948.43 834.503C1948.43 836.022 1947.28 837.162 1945.76 837.162C1944.24 837.162 1943.09 836.022 1943.09 834.503C1943.09 832.983 1944.24 831.844 1945.76 831.844C1947.28 831.844 1948.43 833.11 1948.43 834.503Z" fill="white"/>
<path d="M1971.17 834.503C1971.17 836.022 1970.02 837.162 1968.5 837.162C1966.98 837.162 1965.83 836.022 1965.83 834.503C1965.83 832.983 1966.98 831.844 1968.5 831.844C1969.9 831.844 1971.17 833.11 1971.17 834.503Z" fill="white"/>
<path d="M1993.91 834.503C1993.91 836.022 1992.76 837.162 1991.24 837.162C1989.72 837.162 1988.57 836.022 1988.57 834.503C1988.57 832.983 1989.72 831.844 1991.24 831.844C1992.76 831.844 1993.91 833.11 1993.91 834.503Z" fill="white"/>
<path d="M2016.52 834.503C2016.52 836.022 2015.38 837.162 2013.85 837.162C2012.33 837.162 2011.18 836.022 2011.18 834.503C2011.18 832.983 2012.33 831.844 2013.85 831.844C2015.38 831.844 2016.52 833.11 2016.52 834.503Z" fill="white"/>
<path d="M2039.26 834.503C2039.26 836.022 2038.12 837.162 2036.59 837.162C2035.07 837.162 2033.92 836.022 2033.92 834.503C2033.92 832.983 2035.07 831.844 2036.59 831.844C2038.12 831.844 2039.26 833.11 2039.26 834.503Z" fill="white"/>
<path d="M2062 834.503C2062 836.022 2060.86 837.162 2059.33 837.162C2057.81 837.162 2056.66 836.022 2056.66 834.503C2056.66 832.983 2057.81 831.844 2059.33 831.844C2060.73 831.844 2062 833.11 2062 834.503Z" fill="white"/>
<path d="M1880.34 853.369C1880.34 854.888 1879.19 856.028 1877.67 856.028C1876.14 856.028 1875 854.888 1875 853.369C1875 851.85 1876.14 850.71 1877.67 850.71C1879.19 850.71 1880.34 851.85 1880.34 853.369Z" fill="white"/>
<path d="M1903.08 853.369C1903.08 854.888 1901.93 856.028 1900.41 856.028C1898.88 856.028 1897.74 854.888 1897.74 853.369C1897.74 851.85 1898.88 850.71 1900.41 850.71C1901.81 850.71 1903.08 851.85 1903.08 853.369Z" fill="white"/>
<path d="M1925.69 853.369C1925.69 854.888 1924.54 856.028 1923.02 856.028C1921.5 856.028 1920.35 854.888 1920.35 853.369C1920.35 851.85 1921.5 850.71 1923.02 850.71C1924.54 850.71 1925.69 851.85 1925.69 853.369Z" fill="white"/>
<path d="M1948.43 853.369C1948.43 854.888 1947.28 856.028 1945.76 856.028C1944.24 856.028 1943.09 854.888 1943.09 853.369C1943.09 851.85 1944.24 850.71 1945.76 850.71C1947.28 850.71 1948.43 851.85 1948.43 853.369Z" fill="white"/>
<path d="M1971.17 853.369C1971.17 854.888 1970.02 856.028 1968.5 856.028C1966.98 856.028 1965.83 854.888 1965.83 853.369C1965.83 851.85 1966.98 850.71 1968.5 850.71C1969.9 850.71 1971.17 851.85 1971.17 853.369Z" fill="white"/>
<path d="M1993.91 853.369C1993.91 854.888 1992.76 856.028 1991.24 856.028C1989.72 856.028 1988.57 854.888 1988.57 853.369C1988.57 851.85 1989.72 850.71 1991.24 850.71C1992.76 850.71 1993.91 851.85 1993.91 853.369Z" fill="white"/>
<path d="M2016.52 853.369C2016.52 854.888 2015.38 856.028 2013.85 856.028C2012.33 856.028 2011.18 854.888 2011.18 853.369C2011.18 851.85 2012.33 850.71 2013.85 850.71C2015.38 850.71 2016.52 851.85 2016.52 853.369Z" fill="white"/>
<path d="M2039.26 853.369C2039.26 854.888 2038.12 856.028 2036.59 856.028C2035.07 856.028 2033.92 854.888 2033.92 853.369C2033.92 851.85 2035.07 850.71 2036.59 850.71C2038.12 850.71 2039.26 851.85 2039.26 853.369Z" fill="white"/>
<path d="M2062 853.369C2062 854.888 2060.86 856.028 2059.33 856.028C2057.81 856.028 2056.66 854.888 2056.66 853.369C2056.66 851.85 2057.81 850.71 2059.33 850.71C2060.73 850.71 2062 851.85 2062 853.369Z" fill="white"/>
<path d="M1880.34 796.897C1880.34 798.417 1879.19 799.556 1877.67 799.556C1876.14 799.556 1875 798.417 1875 796.897C1875 795.378 1876.14 794.238 1877.67 794.238C1879.19 794.238 1880.34 795.378 1880.34 796.897Z" fill="white"/>
<path d="M1903.08 796.897C1903.08 798.417 1901.93 799.556 1900.41 799.556C1898.88 799.556 1897.74 798.417 1897.74 796.897C1897.74 795.378 1898.88 794.238 1900.41 794.238C1901.81 794.238 1903.08 795.378 1903.08 796.897Z" fill="white"/>
<path d="M1925.69 796.897C1925.69 798.417 1924.54 799.556 1923.02 799.556C1921.5 799.556 1920.35 798.417 1920.35 796.897C1920.35 795.378 1921.62 794.238 1923.02 794.238C1924.54 794.238 1925.69 795.378 1925.69 796.897Z" fill="white"/>
<path d="M1948.43 796.897C1948.43 798.417 1947.28 799.556 1945.76 799.556C1944.24 799.556 1943.09 798.417 1943.09 796.897C1943.09 795.378 1944.36 794.238 1945.76 794.238C1947.16 794.238 1948.43 795.378 1948.43 796.897Z" fill="white"/>
<path d="M1971.17 796.897C1971.17 798.417 1970.02 799.556 1968.5 799.556C1966.98 799.556 1965.83 798.417 1965.83 796.897C1965.83 795.378 1966.98 794.238 1968.5 794.238C1969.9 794.238 1971.17 795.378 1971.17 796.897Z" fill="white"/>
<path d="M1993.91 796.897C1993.91 798.417 1992.76 799.556 1991.24 799.556C1989.72 799.556 1988.57 798.417 1988.57 796.897C1988.57 795.378 1989.72 794.238 1991.24 794.238C1992.76 794.238 1993.91 795.378 1993.91 796.897Z" fill="white"/>
<path d="M2016.52 796.897C2016.52 798.417 2015.38 799.556 2013.85 799.556C2012.33 799.556 2011.18 798.417 2011.18 796.897C2011.18 795.378 2012.33 794.238 2013.85 794.238C2015.38 794.238 2016.52 795.378 2016.52 796.897Z" fill="white"/>
<path d="M2039.26 796.897C2039.26 798.417 2038.12 799.556 2036.59 799.556C2035.07 799.556 2033.92 798.417 2033.92 796.897C2033.92 795.378 2035.07 794.238 2036.59 794.238C2038.12 794.238 2039.26 795.378 2039.26 796.897Z" fill="white"/>
<path d="M2062 796.897C2062 798.417 2060.86 799.556 2059.33 799.556C2057.81 799.556 2056.66 798.417 2056.66 796.897C2056.66 795.378 2057.81 794.238 2059.33 794.238C2060.73 794.238 2062 795.378 2062 796.897Z" fill="white"/>
<path d="M1880.34 815.763C1880.34 817.283 1879.19 818.422 1877.67 818.422C1876.14 818.422 1875 817.156 1875 815.763C1875 814.244 1876.14 813.104 1877.67 813.104C1879.19 813.104 1880.34 814.244 1880.34 815.763Z" fill="white"/>
<path d="M1903.08 815.763C1903.08 817.283 1901.93 818.422 1900.41 818.422C1898.88 818.422 1897.74 817.283 1897.74 815.763C1897.74 814.244 1898.88 813.104 1900.41 813.104C1901.81 813.104 1903.08 814.244 1903.08 815.763Z" fill="white"/>
<path d="M1925.69 815.763C1925.69 817.283 1924.54 818.422 1923.02 818.422C1921.5 818.422 1920.35 817.283 1920.35 815.763C1920.35 814.244 1921.5 813.104 1923.02 813.104C1924.54 813.104 1925.69 814.244 1925.69 815.763Z" fill="white"/>
<path d="M1948.43 815.763C1948.43 817.283 1947.28 818.422 1945.76 818.422C1944.24 818.422 1943.09 817.283 1943.09 815.763C1943.09 814.244 1944.24 813.104 1945.76 813.104C1947.28 813.104 1948.43 814.244 1948.43 815.763Z" fill="white"/>
<path d="M1971.17 815.763C1971.17 817.283 1970.02 818.422 1968.5 818.422C1966.98 818.422 1965.83 817.283 1965.83 815.763C1965.83 814.244 1966.98 813.104 1968.5 813.104C1969.9 813.104 1971.17 814.244 1971.17 815.763Z" fill="white"/>
<path d="M1993.91 815.763C1993.91 817.283 1992.76 818.422 1991.24 818.422C1989.72 818.422 1988.57 817.283 1988.57 815.763C1988.57 814.244 1989.72 813.104 1991.24 813.104C1992.76 813.104 1993.91 814.244 1993.91 815.763Z" fill="white"/>
<path d="M2016.52 815.763C2016.52 817.283 2015.38 818.422 2013.85 818.422C2012.33 818.422 2011.18 817.283 2011.18 815.763C2011.18 814.244 2012.33 813.104 2013.85 813.104C2015.38 813.104 2016.52 814.244 2016.52 815.763Z" fill="white"/>
<path d="M2039.26 815.763C2039.26 817.283 2038.12 818.422 2036.59 818.422C2035.07 818.422 2033.92 817.283 2033.92 815.763C2033.92 814.244 2035.07 813.104 2036.59 813.104C2038.12 813.104 2039.26 814.244 2039.26 815.763Z" fill="white"/>
<path d="M2062 815.763C2062 817.283 2060.86 818.422 2059.33 818.422C2057.81 818.422 2056.66 817.283 2056.66 815.763C2056.66 814.244 2057.81 813.104 2059.33 813.104C2060.73 813.104 2062 814.244 2062 815.763Z" fill="white"/>
<path d="M1880.34 872.108C1880.34 873.628 1879.19 874.767 1877.67 874.767C1876.14 874.767 1875 873.628 1875 872.108C1875 870.589 1876.14 869.449 1877.67 869.449C1879.19 869.449 1880.34 870.715 1880.34 872.108Z" fill="white"/>
<path d="M1903.08 872.108C1903.08 873.628 1901.93 874.767 1900.41 874.767C1898.88 874.767 1897.74 873.628 1897.74 872.108C1897.74 870.589 1898.88 869.449 1900.41 869.449C1901.81 869.449 1903.08 870.715 1903.08 872.108Z" fill="white"/>
<path d="M1925.69 872.108C1925.69 873.628 1924.54 874.767 1923.02 874.767C1921.5 874.767 1920.35 873.628 1920.35 872.108C1920.35 870.589 1921.5 869.449 1923.02 869.449C1924.54 869.449 1925.69 870.715 1925.69 872.108Z" fill="white"/>
<path d="M1948.43 872.108C1948.43 873.628 1947.28 874.767 1945.76 874.767C1944.24 874.767 1943.09 873.628 1943.09 872.108C1943.09 870.589 1944.24 869.449 1945.76 869.449C1947.28 869.449 1948.43 870.715 1948.43 872.108Z" fill="white"/>
<path d="M1971.17 872.108C1971.17 873.628 1970.02 874.767 1968.5 874.767C1966.98 874.767 1965.83 873.628 1965.83 872.108C1965.83 870.589 1966.98 869.449 1968.5 869.449C1969.9 869.449 1971.17 870.715 1971.17 872.108Z" fill="white"/>
<path d="M1993.91 872.108C1993.91 873.628 1992.76 874.767 1991.24 874.767C1989.72 874.767 1988.57 873.628 1988.57 872.108C1988.57 870.589 1989.72 869.449 1991.24 869.449C1992.76 869.449 1993.91 870.715 1993.91 872.108Z" fill="white"/>
<path d="M2016.52 872.108C2016.52 873.628 2015.38 874.767 2013.85 874.767C2012.33 874.767 2011.18 873.628 2011.18 872.108C2011.18 870.589 2012.33 869.449 2013.85 869.449C2015.38 869.449 2016.52 870.715 2016.52 872.108Z" fill="white"/>
<path d="M2039.26 872.108C2039.26 873.628 2038.12 874.767 2036.59 874.767C2035.07 874.767 2033.92 873.628 2033.92 872.108C2033.92 870.589 2035.07 869.449 2036.59 869.449C2038.12 869.449 2039.26 870.715 2039.26 872.108Z" fill="white"/>
<path d="M2062 872.108C2062 873.628 2060.86 874.767 2059.33 874.767C2057.81 874.767 2056.66 873.628 2056.66 872.108C2056.66 870.589 2057.81 869.449 2059.33 869.449C2060.73 869.449 2062 870.715 2062 872.108Z" fill="white"/>
<path d="M1880.34 890.974C1880.34 892.494 1879.19 893.633 1877.67 893.633C1876.14 893.633 1875 892.494 1875 890.974C1875 889.455 1876.14 888.315 1877.67 888.315C1879.19 888.315 1880.34 889.455 1880.34 890.974Z" fill="white"/>
<path d="M1903.08 890.974C1903.08 892.494 1901.93 893.633 1900.41 893.633C1898.88 893.633 1897.74 892.494 1897.74 890.974C1897.74 889.455 1898.88 888.315 1900.41 888.315C1901.81 888.315 1903.08 889.455 1903.08 890.974Z" fill="white"/>
<path d="M1925.69 890.974C1925.69 892.494 1924.54 893.633 1923.02 893.633C1921.5 893.633 1920.35 892.494 1920.35 890.974C1920.35 889.455 1921.5 888.315 1923.02 888.315C1924.54 888.315 1925.69 889.455 1925.69 890.974Z" fill="white"/>
<path d="M1945.76 893.633C1947.23 893.633 1948.43 892.443 1948.43 890.974C1948.43 889.506 1947.23 888.315 1945.76 888.315C1944.29 888.315 1943.09 889.506 1943.09 890.974C1943.09 892.443 1944.29 893.633 1945.76 893.633Z" fill="white"/>
<path d="M1971.17 890.974C1971.17 892.494 1970.02 893.633 1968.5 893.633C1966.98 893.633 1965.83 892.494 1965.83 890.974C1965.83 889.455 1966.98 888.315 1968.5 888.315C1969.9 888.315 1971.17 889.455 1971.17 890.974Z" fill="white"/>
<path d="M1993.91 890.974C1993.91 892.494 1992.76 893.633 1991.24 893.633C1989.72 893.633 1988.57 892.494 1988.57 890.974C1988.57 889.455 1989.72 888.315 1991.24 888.315C1992.76 888.315 1993.91 889.455 1993.91 890.974Z" fill="white"/>
<path d="M2016.52 890.974C2016.52 892.494 2015.38 893.633 2013.85 893.633C2012.33 893.633 2011.18 892.494 2011.18 890.974C2011.18 889.455 2012.33 888.315 2013.85 888.315C2015.38 888.315 2016.52 889.455 2016.52 890.974Z" fill="white"/>
<path d="M2036.59 893.633C2038.07 893.633 2039.26 892.443 2039.26 890.974C2039.26 889.506 2038.07 888.315 2036.59 888.315C2035.12 888.315 2033.92 889.506 2033.92 890.974C2033.92 892.443 2035.12 893.633 2036.59 893.633Z" fill="white"/>
<path d="M2062 890.974C2062 892.494 2060.86 893.633 2059.33 893.633C2057.81 893.633 2056.66 892.494 2056.66 890.974C2056.66 889.455 2057.81 888.315 2059.33 888.315C2060.73 888.315 2062 889.455 2062 890.974Z" fill="white"/>
<path d="M1880.34 909.84C1880.34 911.359 1879.19 912.499 1877.67 912.499C1876.14 912.499 1875 911.359 1875 909.84C1875 908.32 1876.14 907.181 1877.67 907.181C1879.19 907.181 1880.34 908.32 1880.34 909.84Z" fill="white"/>
<path d="M1903.08 909.84C1903.08 911.359 1901.93 912.499 1900.41 912.499C1898.88 912.499 1897.74 911.359 1897.74 909.84C1897.74 908.32 1898.88 907.181 1900.41 907.181C1901.81 907.181 1903.08 908.32 1903.08 909.84Z" fill="white"/>
<path d="M1925.69 909.84C1925.69 911.359 1924.54 912.499 1923.02 912.499C1921.5 912.499 1920.35 911.359 1920.35 909.84C1920.35 908.32 1921.5 907.181 1923.02 907.181C1924.54 907.181 1925.69 908.32 1925.69 909.84Z" fill="white"/>
<path d="M1948.43 909.84C1948.43 911.359 1947.28 912.499 1945.76 912.499C1944.24 912.499 1943.09 911.359 1943.09 909.84C1943.09 908.32 1944.24 907.181 1945.76 907.181C1947.28 907.181 1948.43 908.32 1948.43 909.84Z" fill="white"/>
<path d="M1971.17 909.84C1971.17 911.359 1970.02 912.499 1968.5 912.499C1966.98 912.499 1965.83 911.359 1965.83 909.84C1965.83 908.32 1966.98 907.181 1968.5 907.181C1969.9 907.181 1971.17 908.32 1971.17 909.84Z" fill="white"/>
<path d="M1993.91 909.84C1993.91 911.359 1992.76 912.499 1991.24 912.499C1989.72 912.499 1988.57 911.359 1988.57 909.84C1988.57 908.32 1989.72 907.181 1991.24 907.181C1992.76 907.181 1993.91 908.32 1993.91 909.84Z" fill="white"/>
<path d="M2016.52 909.84C2016.52 911.359 2015.38 912.499 2013.85 912.499C2012.33 912.499 2011.18 911.359 2011.18 909.84C2011.18 908.32 2012.33 907.181 2013.85 907.181C2015.38 907.181 2016.52 908.32 2016.52 909.84Z" fill="white"/>
<path d="M2039.26 909.84C2039.26 911.359 2038.12 912.499 2036.59 912.499C2035.07 912.499 2033.92 911.359 2033.92 909.84C2033.92 908.32 2035.07 907.181 2036.59 907.181C2038.12 907.181 2039.26 908.32 2039.26 909.84Z" fill="white"/>
<path d="M2062 909.84C2062 911.359 2060.86 912.499 2059.33 912.499C2057.81 912.499 2056.66 911.359 2056.66 909.84C2056.66 908.32 2057.81 907.181 2059.33 907.181C2060.73 907.181 2062 908.32 2062 909.84Z" fill="white"/>
<path d="M1880.34 928.579C1880.34 930.098 1879.19 931.238 1877.67 931.238C1876.14 931.238 1875 930.098 1875 928.579C1875 927.059 1876.14 925.92 1877.67 925.92C1879.19 925.92 1880.34 927.186 1880.34 928.579Z" fill="white"/>
<path d="M1903.08 928.579C1903.08 930.098 1901.93 931.238 1900.41 931.238C1898.88 931.238 1897.74 930.098 1897.74 928.579C1897.74 927.059 1898.88 925.92 1900.41 925.92C1901.81 925.92 1903.08 927.186 1903.08 928.579Z" fill="white"/>
<path d="M1925.69 928.579C1925.69 930.098 1924.54 931.238 1923.02 931.238C1921.5 931.238 1920.35 930.098 1920.35 928.579C1920.35 927.059 1921.5 925.92 1923.02 925.92C1924.54 925.92 1925.69 927.186 1925.69 928.579Z" fill="white"/>
<path d="M1948.43 928.579C1948.43 930.098 1947.28 931.238 1945.76 931.238C1944.24 931.238 1943.09 930.098 1943.09 928.579C1943.09 927.059 1944.24 925.92 1945.76 925.92C1947.28 925.92 1948.43 927.186 1948.43 928.579Z" fill="white"/>
<path d="M1971.17 928.579C1971.17 930.098 1970.02 931.238 1968.5 931.238C1966.98 931.238 1965.83 930.098 1965.83 928.579C1965.83 927.059 1966.98 925.92 1968.5 925.92C1969.9 925.92 1971.17 927.186 1971.17 928.579Z" fill="white"/>
<path d="M1993.91 928.579C1993.91 930.098 1992.76 931.238 1991.24 931.238C1989.72 931.238 1988.57 930.098 1988.57 928.579C1988.57 927.059 1989.72 925.92 1991.24 925.92C1992.76 925.92 1993.91 927.186 1993.91 928.579Z" fill="white"/>
<path d="M2016.52 928.579C2016.52 930.098 2015.38 931.238 2013.85 931.238C2012.33 931.238 2011.18 930.098 2011.18 928.579C2011.18 927.059 2012.33 925.92 2013.85 925.92C2015.38 925.92 2016.52 927.186 2016.52 928.579Z" fill="white"/>
<path d="M2039.26 928.579C2039.26 930.098 2038.12 931.238 2036.59 931.238C2035.07 931.238 2033.92 930.098 2033.92 928.579C2033.92 927.059 2035.07 925.92 2036.59 925.92C2038.12 925.92 2039.26 927.186 2039.26 928.579Z" fill="white"/>
<path d="M2062 928.579C2062 930.098 2060.86 931.238 2059.33 931.238C2057.81 931.238 2056.66 930.098 2056.66 928.579C2056.66 927.059 2057.81 925.92 2059.33 925.92C2060.73 925.92 2062 927.186 2062 928.579Z" fill="white"/>
</g>
<g opacity="0.3">
<path d="M1873.81 120.459L1883.47 130.118L1857.78 155.802L1832.1 130.118L1841.68 120.533L1857.71 136.557L1873.81 120.459Z" fill="white"/>
<path d="M1873.81 85.7768L1883.39 95.3624L1857.71 121.046L1832.1 95.4355L1841.76 85.7768L1857.78 101.802L1873.81 85.7768Z" fill="white"/>
<path d="M1873.73 51.0199L1883.39 60.6786L1857.78 86.2889L1832.1 60.6055L1841.68 51.0199L1857.71 67.0446L1873.73 51.0199Z" fill="white"/>
<path d="M1873.81 16.2622L1883.47 25.9209L1857.78 51.6043L1832.1 25.9209L1841.76 16.2622L1857.78 32.2869L1873.81 16.2622Z" fill="white"/>
</g>
<path opacity="0.3" d="M906 853.791C892.071 867.721 869.377 867.721 855.447 853.791C841.518 839.862 841.518 817.168 855.447 803.238L906 853.791Z" fill="white"/>
<g opacity="0.3">
<path d="M960.486 575.128C971.205 575.128 979.937 566.403 979.937 555.692C979.937 544.98 971.205 536.255 960.486 536.255L960.486 575.128Z" fill="white"/>
<path d="M930.141 575.128C940.86 575.128 949.592 566.403 949.592 555.692C949.592 544.98 940.86 536.255 930.141 536.255L930.141 575.128Z" fill="white"/>
<path d="M899.796 575.128C910.516 575.128 919.247 566.403 919.247 555.692C919.247 544.98 910.516 536.255 899.796 536.255L899.796 575.128Z" fill="white"/>
</g>
<g opacity="0.3">
<path d="M258.301 190.16L258.301 178.239L290 178.239L290 209.938L278.169 209.938L278.169 190.16L258.301 190.16Z" fill="white"/>
<path d="M236.899 211.563L236.899 199.732L268.597 199.732L268.597 231.341L256.677 231.341L256.677 211.563L236.899 211.563Z" fill="white"/>
<path d="M215.495 233.057L215.495 221.136L247.103 221.136L247.103 252.835L235.273 252.835L235.273 233.057L215.495 233.057Z" fill="white"/>
<path d="M194.001 254.46L194.001 242.54L225.699 242.54L225.699 274.238L213.779 274.238L213.779 254.46L194.001 254.46Z" fill="white"/>
</g>
<defs>
<clipPath id="clip0_2510_551">
<rect width="284" height="284" fill="white" transform="translate(0 941.238)"/>
</clipPath>
<clipPath id="clip1_2510_551">
<rect width="187" height="137" fill="white" transform="translate(1875 794.238)"/>
</clipPath>
</defs>
</svg>
