<svg width="144" height="258" viewBox="0 0 144 258" fill="none" xmlns="http://www.w3.org/2000/svg">
<g opacity="0.4" clip-path="url(#clip0_2234_9739)">
<path d="M128.368 0C57.4047 0 0 57.6708 0 128.963C0 200.079 57.4047 257.926 128.368 257.926C199.155 257.926 256.736 200.256 256.736 128.963C256.56 57.6708 199.155 0 128.368 0ZM128.368 249.612C61.983 249.612 8.27613 195.656 8.27613 128.963C8.27613 62.2703 61.983 8.3145 128.368 8.3145C194.753 8.3145 248.46 62.2703 248.46 128.963C248.46 195.479 194.577 249.612 128.368 249.612Z" fill="white"/>
<path d="M128.368 27.7734C72.9008 27.7734 27.8223 73.0609 27.8223 128.786C27.8223 184.511 72.9008 229.798 128.368 229.798C183.836 229.798 228.915 184.687 228.915 128.963C228.915 73.0609 183.836 27.7734 128.368 27.7734ZM128.368 214.407C81.353 214.407 43.1419 176.019 43.1419 128.786C43.1419 81.5523 81.353 43.1641 128.368 43.1641C175.384 43.1641 213.595 81.5523 213.595 128.786C213.595 176.019 175.384 214.407 128.368 214.407Z" fill="white"/>
</g>
<defs>
<clipPath id="clip0_2234_9739">
<rect width="256.56" height="257.749" fill="white"/>
</clipPath>
</defs>
</svg>
